<mxfile host="app.diagrams.net" modified="2023-06-17T16:21:02.895Z" agent="Mozilla/5.0 (Windows NT 10.0; Win64; x64) AppleWebKit/537.36 (KHTML, like Gecko) Chrome/114.0.0.0 Safari/537.36" version="21.4.0" etag="BXc6YTpAXj2VSSv-7gYd" type="github">
  <diagram name="Page-1" id="JTHb6mzUwkfGfl3IJYKD">
    <mxGraphModel>
      <root>
        <mxCell id="0" />
        <mxCell id="1" parent="0" />
      </root>
    </mxGraphModel>
  </diagram>
</mxfile>
